# xmcd
#
# Track frame offsets:
#	150
#	19717
#	41788
#	55975
#	85805
#	109957
#	131047
#	147774
#
# Disc length: 2135
#
# Revision: 1
# Processed by: cddbd v1.5.1PL0 Copyright (c) Steve Scherf et al.
# Submitted via: CDex 1.50beta9
# Normalized: r0:TRMNUM
#
DISCID=6d085508
DTITLE=Muddy Waters - Electric mud
DYEAR=1900
DGENRE=Blues
TTITLE0=I Just Want to Make Love to You
TTITLE1=I'm Your Hoochie Coochie Man
TTITLE2=Lets Spend the Night Together
TTITLE3=She's Alright
TTITLE4=Mannish Boy
TTITLE5=Herbert Harper's Free Press News
TTITLE6=Tom Cat
TTITLE7=The Same Thing
EXTD=
EXTT0=
EXTT1=
EXTT2=
EXTT3=
EXTT4=
EXTT5=
EXTT6=
EXTT7=
PLAYORDER=
